<?xml version="1.0" encoding="UTF-8"?>
<!DOCTYPE svg PUBLIC "-//W3C//DTD SVG 1.1//EN" "http://www.w3.org/Graphics/SVG/1.1/DTD/svg11.dtd">
<!-- Creator: CorelDRAW X6 -->
<svg xmlns="http://www.w3.org/2000/svg" xml:space="preserve" width="1200px" height="500px" version="1.1" style="shape-rendering:geometricPrecision; text-rendering:geometricPrecision; image-rendering:optimizeQuality; fill-rule:evenodd; clip-rule:evenodd"
viewBox="0 0 1200 500"
 xmlns:xlink="http://www.w3.org/1999/xlink">
 <defs>
  <style type="text/css">
   <![CDATA[
    .fil0 {fill:none}
    .fil2 {fill:#FEFEFE}
    .fil1 {fill:#FEFEFE;fill-rule:nonzero}
   ]]>
  </style>
 </defs>
 <g id="Camada_x0020_1">
  <metadata id="CorelCorpID_0Corel-Layer"/>
  <rect class="fil0" width="1200" height="500"/>
  <g id="_777188000">
   <path class="fil1" d="M337 259l0 19c-10,-12 -27,-23 -43,-23 -34,0 -50,22 -55,53 28,33 59,30 84,14 26,-16 55,-20 82,3l0 -66 -67 0z"/>
   <path class="fil2" d="M399 399l-62 0c0,-12 8,-17 21,-18 16,0 27,5 41,18z"/>
   <path class="fil1" d="M235 323c-1,-1 -1,-3 0,-4 1,-1 3,-1 4,0 15,14 28,22 42,24 14,2 28,-2 44,-12 13,-8 28,-13 43,-12 13,1 26,6 38,18 1,1 1,3 0,4 -1,1 -3,1 -4,0 -11,-11 -23,-16 -35,-17 -14,-1 -28,4 -40,11 -17,11 -32,15 -47,12 -15,-2 -29,-11 -44,-25z"/>
   <path class="fil1" d="M239 359c-1,-1 -1,-2 0,-4 1,-1 2,-1 4,0 14,12 27,19 40,21 13,2 27,-2 42,-12 13,-8 28,-13 43,-12 13,1 26,6 38,18 1,1 1,3 0,4 -1,1 -3,1 -4,0 -11,-11 -23,-16 -35,-17 -14,-1 -28,4 -40,11 -17,10 -31,14 -45,13 -14,-2 -28,-9 -42,-22z"/>
   <path class="fil1" d="M254 386c-1,-1 -1,-2 -1,-3 1,-1 2,-1 3,-1 11,7 21,10 32,10 11,0 23,-4 35,-12 13,-8 28,-13 43,-12 13,1 26,6 38,18l-3 4c-11,-11 -23,-16 -35,-17 -14,-1 -28,4 -40,11 -14,8 -26,13 -38,13 -12,0 -23,-3 -35,-11z"/>
   <path class="fil1" d="M235 339c-1,-1 -1,-3 0,-4 1,-1 3,-1 4,0 15,14 28,22 42,24 14,2 28,-2 44,-12 13,-8 28,-13 43,-12 13,1 26,6 38,18 1,1 1,3 0,4 -1,1 -3,1 -4,0 -11,-11 -23,-16 -35,-17 -14,-1 -28,4 -40,11 -17,11 -32,15 -47,12 -15,-2 -29,-11 -44,-25z"/>
  </g>
  <path class="fil1" d="M1059 256c-52,0 -82,33 -82,73 0,40 31,73 82,73 49,0 82,-33 82,-73 0,-40 -34,-73 -82,-73zm0 110c-11,0 -21,-16 -21,-37 0,-20 9,-37 21,-37 11,0 21,16 21,37 0,20 -9,37 -21,37z"/>
  <path class="fil1" d="M902 296c0,-10 26,-7 37,6l20 -35c-21,-10 -52,-11 -52,-11 -32,0 -65,17 -65,46 0,6 1,26 37,38 21,7 27,12 24,19 -7,14 -36,1 -43,-8l-20 35c9,6 29,15 58,15 49,0 64,-27 67,-46 5,-39 -61,-42 -61,-58z"/>
  <polygon class="fil1" points="758,399 821,399 821,259 758,259 "/>
  <path class="fil1" d="M486 285l0 -26 -61 0 0 140 61 0 0 -62c0,-28 26,-36 45,-24 0,-19 0,-39 0,-58 -19,0 -34,10 -45,29z"/>
  <path class="fil1" d="M664 259l0 20c-10,-12 -26,-24 -42,-24 -23,0 -40,13 -49,32 3,-1 6,-2 9,-4 7,-4 15,-4 19,3 6,11 12,23 18,34 1,1 2,3 3,2 9,-2 17,-3 18,6 0,3 2,3 4,3 7,-2 17,-8 25,-12 15,-9 25,-16 32,7 5,16 14,29 25,41 3,3 7,7 2,7 -20,1 -32,-17 -39,-32 -6,-13 -34,-2 -51,11 -8,6 -14,2 -18,-9 -4,-12 -12,-27 -31,-35 -9,-4 -18,1 -24,6 0,3 -1,6 -1,10 -1,35 16,78 56,78 17,0 41,-15 45,-27l0 23 67 0 0 -140 -67 0z"/>
  <path class="fil1" d="M158 255c-16,0 -28,12 -37,22l0 -20 -63 0 0 202 63 0 0 -81c9,11 20,23 40,23 36,0 53,-33 53,-72 0,-47 -25,-75 -56,-75zm-23 105c-9,0 -17,-15 -17,-33 0,-18 7,-33 17,-33 9,0 17,15 17,33 0,18 -7,33 -17,33z"/>
  <path class="fil1" d="M235 92l0 -50 -2 0c0,2 -1,3 -1,4l0 0c-1,2 -1,3 -2,4l0 0c-2,2 -4,3 -7,3 -1,0 -3,0 -5,-1 -2,-1 -5,-2 -8,-3 -6,-2 -11,-4 -17,-5 -5,-1 -11,-2 -16,-2 -7,0 -14,1 -21,3 -7,2 -13,4 -19,8 -6,3 -12,8 -17,13 -5,5 -9,11 -13,17 -7,13 -11,26 -11,40 0,7 1,13 2,19 2,6 4,12 7,18 3,6 7,11 12,16 5,5 10,8 16,12 12,6 26,9 42,9 6,0 12,0 17,-1 5,-1 10,-2 15,-4 4,-2 9,-4 13,-8 4,-3 8,-7 12,-11l0 -9c-4,4 -7,8 -11,11 -4,4 -8,7 -12,9l0 0c-4,2 -8,4 -13,5 -4,1 -9,2 -14,2 -6,0 -11,-1 -16,-2 -5,-1 -9,-4 -13,-7l0 0c-4,-3 -7,-6 -10,-11 -3,-4 -5,-9 -7,-15l0 0c-2,-6 -3,-12 -4,-18 -1,-6 -1,-13 -1,-19 0,-7 1,-14 2,-20 1,-6 3,-12 5,-18 2,-4 4,-9 7,-12 3,-4 6,-7 10,-10 4,-3 8,-5 13,-6 4,-1 9,-2 14,-2 6,0 11,1 16,3 5,2 10,5 15,8 5,4 8,8 11,14l0 0c3,5 5,11 7,18l2 0zm83 -1c-4,-1 -8,-2 -13,-2 -7,0 -14,1 -20,4 -6,3 -11,7 -15,12l0 0c-4,5 -7,11 -9,18 -2,6 -3,13 -3,20 0,7 1,14 3,20 2,6 5,12 9,17l0 0c4,5 9,9 15,12 6,3 13,4 20,4 8,0 15,-1 21,-4 6,-3 11,-7 16,-13 4,-5 6,-10 8,-16 2,-6 3,-13 3,-20 0,-5 0,-10 -1,-14 -1,-5 -2,-9 -4,-13 -2,-4 -4,-8 -7,-11 -3,-3 -6,-6 -10,-8l0 0c-4,-2 -8,-4 -12,-5zm-18 5c2,-1 4,-1 6,-1 2,0 3,0 5,1l0 0c1,0 3,1 4,2 1,1 3,3 4,5l0 0c1,2 2,4 3,6 1,2 1,6 2,10 0,4 1,10 1,16 0,11 0,20 -1,27 0,7 -1,13 -2,16l0 0c-1,2 -1,4 -2,6 -1,2 -2,4 -4,5l0 0c-1,1 -3,2 -4,2 -2,1 -3,1 -5,1 -2,0 -4,0 -5,-1 -2,-1 -3,-2 -5,-3 -1,-1 -3,-3 -4,-5 -1,-2 -2,-5 -2,-7l0 0c-1,-7 -2,-14 -2,-22 0,-7 0,-14 0,-20 0,-6 1,-11 1,-15 0,-4 1,-8 2,-11l0 0c1,-3 2,-5 4,-7 1,-2 3,-3 5,-3zm109 77l0 -128 -41 0 0 1c2,0 4,1 5,1 2,1 3,2 4,3 2,2 3,7 3,15l0 107c0,4 0,7 -1,9l0 0c0,3 -1,4 -2,5l0 0c-1,1 -3,3 -5,3 -2,1 -3,1 -5,1l0 1 54 0 0 -1c-2,0 -4,-1 -5,-1l0 0c-2,-1 -3,-2 -4,-3l0 0c-1,-1 -2,-3 -2,-6 0,-2 -1,-6 -1,-9zm54 -35l56 0c0,-8 -2,-15 -3,-21 -2,-6 -5,-11 -9,-16 -4,-4 -8,-7 -12,-9 -4,-2 -9,-3 -14,-3 -6,0 -12,1 -17,4 -5,2 -10,6 -15,11 -5,5 -8,11 -10,17 -2,7 -3,14 -3,23 0,14 3,25 9,35 4,6 9,10 14,13 6,3 12,4 20,4 4,0 8,-1 12,-2 4,-1 7,-3 11,-5 3,-2 6,-5 9,-9l0 0c3,-4 6,-8 8,-13l-2 -1c-2,3 -4,5 -5,7 -2,2 -4,4 -6,5 -2,1 -4,2 -6,3 -2,1 -4,1 -7,1 -4,0 -7,-1 -11,-2 -3,-2 -6,-4 -9,-7 -3,-4 -6,-9 -8,-15 -2,-6 -3,-12 -3,-19l0 -1 1 0zm30 -21c0,4 0,9 0,15l0 1 -1 0 -30 0 -1 0 0 -1 0 -4c0,-6 1,-11 2,-16 1,-5 3,-9 5,-12l0 0c1,-2 3,-4 5,-5 2,-1 4,-2 6,-2 1,0 3,0 4,1 1,0 2,1 3,2l0 0c1,1 3,3 4,5 1,2 2,4 3,6l0 0c1,2 1,6 1,10zm-20 -39l34 -36 -30 0 -12 36 7 0zm159 16l-34 0 0 0 0 0c-7,-3 -14,-4 -21,-4 -6,0 -12,1 -17,3 -5,2 -10,4 -14,8l0 0c-4,4 -7,7 -9,12 -2,4 -3,9 -3,14 0,4 1,7 2,11 1,3 3,6 5,9 2,3 5,5 8,8 3,2 8,4 12,6l3 1 -3 1c-4,2 -8,4 -11,6 -3,2 -5,4 -7,7l0 0c-2,2 -3,5 -4,7 -1,2 -1,5 -1,7 0,4 1,7 3,11 2,3 6,6 10,8l3 1 -3 1c-3,1 -6,2 -9,3 -2,1 -4,2 -5,3 -1,1 -2,3 -3,4l0 0c-1,1 -1,3 -1,4 0,2 0,3 1,5 1,2 2,3 3,5 2,1 4,3 6,4 3,1 6,2 10,3l0 0c4,1 8,2 12,2 4,0 9,1 13,1 6,0 12,0 17,-1 5,-1 10,-2 15,-4 3,-1 6,-3 8,-4 2,-2 5,-4 6,-6l0 0c4,-5 6,-10 6,-16 0,-5 -1,-9 -3,-12 -2,-3 -5,-6 -9,-9l0 0c-3,-2 -7,-3 -12,-4 -5,-1 -12,-1 -20,-1l0 0 -19 0 0 0c-2,0 -4,0 -6,-1 -2,0 -3,-1 -4,-2 -1,-1 -2,-2 -3,-3 -1,-1 -1,-3 -1,-4 0,-2 0,-3 1,-5 1,-1 2,-3 3,-4 2,-2 6,-4 9,-4l0 0c8,0 13,1 13,1 3,0 5,0 9,-1 3,-1 6,-2 10,-3l0 0c3,-1 7,-3 9,-5 3,-2 5,-4 7,-7l0 0c2,-3 3,-5 4,-8 1,-3 1,-6 1,-10 0,-2 0,-4 -1,-6l0 0c0,-2 -1,-4 -2,-6l0 0c-1,-1 -2,-3 -3,-5 -1,-2 -3,-3 -4,-5l-2 -2 3 0 18 0 0 -10zm-65 7c3,-5 7,-7 12,-7 2,0 4,0 6,1 2,1 3,2 5,4l0 0c2,3 3,6 4,11 1,5 1,10 1,17 0,6 0,11 -1,15 -1,4 -2,7 -4,9 -2,2 -3,4 -5,5 -2,1 -4,2 -7,2 -2,0 -4,-1 -6,-2 -2,-1 -4,-3 -5,-5 -2,-2 -3,-5 -3,-9 -1,-4 -1,-9 -1,-14 0,-7 0,-12 1,-17 1,-5 2,-8 4,-10zm-4 108c3,0 6,0 10,0 9,0 16,0 21,0 5,0 9,1 11,1 2,0 4,1 6,2 2,1 3,2 4,3l0 0c1,1 1,2 1,3 0,1 0,2 0,3 0,3 -1,5 -2,7 -2,2 -4,4 -7,5l0 0c-3,1 -7,2 -11,3 -4,1 -9,1 -14,1 -6,0 -11,0 -15,-1 -4,-1 -8,-2 -10,-4 -2,-2 -4,-3 -5,-5 -1,-2 -2,-4 -2,-6 0,-2 1,-4 2,-6 1,-2 3,-3 5,-4l0 0c1,-1 3,-1 6,-2zm113 -166c-2,-1 -4,-1 -6,-1 -2,0 -4,0 -6,1 -2,1 -4,2 -5,3 -2,2 -3,3 -3,5 -1,2 -1,4 -1,6 0,2 0,4 1,6 1,2 2,4 3,5 2,2 3,3 5,3 2,1 4,1 6,1 2,0 4,0 6,-1 2,-1 4,-2 5,-3 2,-2 3,-3 3,-5 1,-2 1,-4 1,-6 0,-2 0,-4 -1,-6 -1,-2 -2,-4 -3,-5l0 0c-2,-2 -3,-3 -5,-3zm8 130l0 -81 -41 0 0 1c2,0 4,1 5,1 2,1 3,2 4,3l0 0c2,2 3,7 3,15l0 61c0,4 0,7 -1,9l0 0c0,3 -1,4 -2,5l0 0c-1,1 -3,3 -5,3 -2,1 -3,1 -5,1l0 1 54 0 0 -1c-2,0 -4,-1 -5,-1l0 0c-2,-1 -3,-2 -4,-3l0 0c-1,-1 -2,-3 -2,-6 0,-2 -1,-6 -1,-9z"/>
  <path class="fil2" d="M565 290c1,0 2,1 2,2 0,6 -1,13 -3,19 0,1 -1,1 -1,0 -5,-3 -11,-6 -16,-11 -1,-1 0,-3 0,-3 6,-3 12,-5 18,-7z"/>
  <path class="fil2" d="M759 67c4,6 8,11 13,16 5,5 10,9 16,14 5,-6 10,-11 16,-16 6,-5 12,-10 19,-15l3 -2 -1 3c-1,6 -2,13 -3,20 0,6 -1,13 0,20 8,0 16,0 23,0 8,1 16,2 25,3l3 1 -3 2c-5,3 -11,7 -16,11 -5,4 -10,8 -14,13 5,5 10,11 15,16 5,6 10,12 14,19l2 2 -3 0c-6,-1 -11,-1 -18,-2 -6,0 -12,-1 -19,0 0,8 0,15 -1,23 -1,8 -2,16 -4,24l-1 3 -2 -2c-4,-5 -7,-10 -12,-14 -4,-5 -9,-9 -14,-14 -5,5 -11,10 -17,15 -6,5 -12,10 -19,14l-2 1 0 -3c1,-6 2,-12 2,-19 0,-6 0,-13 0,-20 -7,0 -14,1 -21,0 -8,0 -15,-1 -22,-2l-3 0 2 -2c2,-2 4,-3 5,-5 7,-6 15,-12 22,-20 -6,-5 -12,-10 -17,-16 -5,-6 -10,-12 -14,-18l-1 -2 2 0c2,0 5,0 7,0 10,1 21,1 33,0 0,-8 0,-15 0,-23 0,-8 1,-16 2,-24l1 -3 2 3zm63 48c-7,-7 -18,-11 -29,-11 -11,0 -22,4 -29,11 -7,7 -12,17 -12,28 0,11 5,21 12,28 7,7 18,11 29,11 11,0 22,-4 29,-11 7,-7 12,-17 12,-28 0,-11 -5,-21 -12,-28z"/>
 </g>
</svg>
