<?xml version="1.0" encoding="UTF-8"?>
<!DOCTYPE svg PUBLIC "-//W3C//DTD SVG 1.1//EN" "http://www.w3.org/Graphics/SVG/1.1/DTD/svg11.dtd">
<!-- Creator: CorelDRAW X6 -->
<svg xmlns="http://www.w3.org/2000/svg" xml:space="preserve" width="600px" height="587px" version="1.1" style="shape-rendering:geometricPrecision; text-rendering:geometricPrecision; image-rendering:optimizeQuality; fill-rule:evenodd; clip-rule:evenodd"
viewBox="0 0 346 338"
 xmlns:xlink="http://www.w3.org/1999/xlink">
 <defs>
  <style type="text/css">
   <![CDATA[
    .fil0 {fill:#21744A}
   ]]>
  </style>
 </defs>
 <g id="Camada_x0020_1">
  <metadata id="CorelCorpID_0Corel-Layer"/>
  <path class="fil0" d="M101 8c8,12 18,23 28,34 10,10 21,20 34,29 11,-12 23,-24 35,-35 13,-12 26,-23 40,-33l5 -4 -1 7c-3,14 -5,28 -6,42 -1,14 -1,28 0,42 17,-1 34,-1 51,0 18,1 35,3 53,7l7 1 -6 4c-12,7 -23,15 -34,24 -11,8 -21,18 -31,28 12,11 23,23 33,36 11,13 22,27 31,41l3 5 -6 -1c-12,-2 -25,-3 -39,-4 -13,-1 -27,-1 -41,-1 0,16 -1,33 -2,49 -2,17 -4,35 -8,52l-1 6 -4 -5c-8,-10 -16,-21 -26,-31 -9,-10 -19,-20 -31,-30 -11,11 -23,22 -36,32 -13,11 -27,21 -41,30l-5 3 1 -6c2,-13 3,-27 4,-41 1,-13 0,-28 -1,-43 -15,1 -31,1 -46,1 -16,-1 -33,-2 -49,-4l-6 -1 4 -4c4,-4 8,-7 12,-10 15,-13 32,-27 48,-44 -13,-11 -25,-23 -36,-35 -12,-13 -22,-26 -31,-40l-3 -4 5 0c5,0 10,1 15,1 21,1 45,3 70,1 -1,-16 -1,-33 0,-49 1,-17 2,-34 5,-52l1 -7 4 6zm136 104c-16,-15 -38,-25 -63,-25 -25,0 -47,10 -63,25 -16,15 -26,37 -26,60 0,23 10,45 26,60 16,15 38,25 63,25 25,0 47,-10 63,-25 16,-15 26,-37 26,-60 0,-23 -10,-45 -26,-60z"/>
 </g>
</svg>
