<?xml version="1.0" encoding="UTF-8"?>
<!DOCTYPE svg PUBLIC "-//W3C//DTD SVG 1.1//EN" "http://www.w3.org/Graphics/SVG/1.1/DTD/svg11.dtd">
<!-- Creator: CorelDRAW X6 -->
<svg xmlns="http://www.w3.org/2000/svg" xml:space="preserve" width="1200px" height="1200px" version="1.1" style="shape-rendering:geometricPrecision; text-rendering:geometricPrecision; image-rendering:optimizeQuality; fill-rule:evenodd; clip-rule:evenodd"
viewBox="0 0 1200 1200"
 xmlns:xlink="http://www.w3.org/1999/xlink">
 <defs>
  <style type="text/css">
   <![CDATA[
    .fil0 {fill:none}
    .fil5 {fill:#CCE7D4}
    .fil6 {fill:#FEFEFE}
    .fil1 {fill:#21744A}
    .fil4 {fill:#6B952F}
    .fil3 {fill:#DCDE21}
    .fil2 {fill:#21744A;fill-rule:nonzero}
   ]]>
  </style>
 </defs>
 <g id="Camada_x0020_1">
  <metadata id="CorelCorpID_0Corel-Layer"/>
  <rect class="fil0" width="1200" height="1200"/>
  <path class="fil1" d="M216 677l37 0 0 196c0,9 7,16 16,16l127 0c9,0 16,-7 16,-16l0 -196 37 0c9,0 16,-7 16,-16l0 -119c0,-35 -29,-64 -64,-64l-137 0c-35,0 -64,29 -64,64l0 119c0,9 7,16 16,16z"/>
  <path class="fil2" d="M204 949c-5,-4 -5,-12 -1,-16 4,-5 12,-5 16,-1 68,64 130,101 194,111 63,10 129,-8 205,-54 61,-37 130,-62 201,-56 60,5 120,30 177,86 5,5 5,12 0,16 -4,5 -12,5 -16,0 -53,-52 -108,-75 -163,-79 -66,-5 -130,18 -187,53 -80,50 -151,68 -220,58 -69,-11 -135,-50 -206,-117z"/>
  <path class="fil3" d="M544 664l53 0c7,0 13,-6 13,-13l0 -40c0,-22 18,-40 40,-40l132 0c5,0 9,1 13,2l-12 59 -11 57 27 0 21 -105 145 0 -21 105 27 0 23 -115c1,-4 0,-8 -3,-11 -3,-3 -6,-5 -10,-5l-160 0c-11,-8 -25,-13 -39,-13l-7 0c13,-14 20,-33 20,-53 0,-44 -36,-79 -79,-79 -44,0 -79,36 -79,79 0,20 8,39 20,53l-7 0c-37,0 -66,30 -66,66l0 26 -53 0c-7,0 -13,6 -13,13l0 38 26 0 0 -25zm119 25l0 -78 -26 0 0 78 26 0zm0 -197c0,-29 24,-53 53,-53 29,0 53,24 53,53 0,29 -24,53 -53,53 -29,0 -53,-24 -53,-53z"/>
  <polygon class="fil1" points="412,425 412,425 "/>
  <polygon class="fil4" points="875,624 902,624 902,651 875,651 "/>
  <path class="fil5" d="M319 306l0 -185 238 0 0 185 -53 0c-4,0 -7,1 -9,4l-44 44 0 -34c0,-7 -6,-13 -13,-13l-119 0zm114 92c2,1 3,1 5,1 3,0 7,-1 9,-4l62 -62 61 0c7,0 13,-6 13,-13l0 -212c0,-7 -6,-13 -13,-13l-265 0c-7,0 -13,6 -13,13l0 212c0,7 6,13 13,13l119 0 0 53c0,5 3,10 8,12z"/>
  <polygon class="fil5" points="359,200 518,200 518,227 359,227 "/>
  <polygon class="fil5" points="359,147 518,147 518,174 359,174 "/>
  <polygon class="fil5" points="359,253 518,253 518,280 359,280 "/>
  <path class="fil4" d="M968 863l-503 0 0 -146 66 0 252 0 172 0 13 0 0 146zm-196 -172l-108 0 -26 0 -93 0 -26 0 -66 0c-7,0 -13,6 -13,13l0 172c0,7 6,13 13,13l530 0c7,0 13,-6 13,-13l0 -172c0,-7 -6,-13 -13,-13l-10 0 23 -117c1,-4 0,-8 -3,-11 -3,-3 -6,-5 -10,-5l-160 0 -23 0 -27 132zm172 0l-145 0 21 -106 145 0 -21 106z"/>
  <path class="fil6" d="M226 651l27 0 0 -106 26 0 0 106 0 26 0 182c0,2 2,4 4,4l32 0c2,0 4,-2 4,-4l0 -182 27 0 0 182c0,2 2,4 4,4l32 0c2,0 4,-2 4,-4l0 -182 0 -26 0 -106 27 0 0 106 26 0 0 -107c0,-22 -18,-40 -40,-40l-132 0c-22,0 -40,18 -40,40l0 107z"/>
  <path class="fil1" d="M332 341c44,0 80,36 80,80 0,44 -36,80 -80,80 -44,0 -80,-36 -80,-80 0,-44 36,-80 80,-80zm0 27c29,0 53,24 53,53 0,29 -24,53 -53,53 -29,0 -53,-24 -53,-53 0,-29 24,-53 53,-53z"/>
 </g>
</svg>
