<?xml version="1.0" encoding="UTF-8"?>
<!DOCTYPE svg PUBLIC "-//W3C//DTD SVG 1.1//EN" "http://www.w3.org/Graphics/SVG/1.1/DTD/svg11.dtd">
<!-- Creator: CorelDRAW X6 -->
<svg xmlns="http://www.w3.org/2000/svg" xml:space="preserve" width="1000px" height="1000px" version="1.1" style="shape-rendering:geometricPrecision; text-rendering:geometricPrecision; image-rendering:optimizeQuality; fill-rule:evenodd; clip-rule:evenodd"
viewBox="0 0 1000 1000"
 xmlns:xlink="http://www.w3.org/1999/xlink">
 <defs>
  <style type="text/css">
   <![CDATA[
    .fil3 {fill:none}
    .fil0 {fill:#00A859}
    .fil2 {fill:#DCDE21}
    .fil1 {fill:#21744A;fill-rule:nonzero}
   ]]>
  </style>
   <clipPath id="id0">
    <path d="M525 201c-116,0 -209,94 -209,209 0,116 94,209 209,209 116,0 209,-94 209,-209 0,-116 -94,-209 -209,-209z"/>
   </clipPath>
 </defs>
 <g id="Camada_x0020_1">
  <metadata id="CorelCorpID_0Corel-Layer"/>
  <path class="fil0" d="M525 126c156,0 283,127 283,283 0,156 -127,283 -283,283l0 0 -214 0c-12,0 -21,-9 -21,-21l0 -103c-31,-45 -49,-100 -49,-160 0,-156 127,-283 283,-283zm1 525c133,0 240,-108 240,-241 0,-133 -108,-241 -241,-241 -133,0 -241,108 -241,241 0,20 2,39 7,57l0 0c6,23 15,45 27,65l0 0c0,1 1,2 1,2l0 0 1 1 0 1c0,1 1,1 1,2l0 1 1 1c0,0 1,1 1,1l0 0c0,0 1,1 1,1l0 1c0,1 1,1 1,2l0 1c0,0 1,1 1,1l0 0c0,1 1,1 1,2l0 0c0,0 1,1 1,1l0 0c0,1 1,1 1,2l0 0c0,1 1,1 1,2l0 63 0 33 44 0 42 0 107 0z"/>
  <path class="fil1" d="M170 791c-4,-4 -4,-10 0,-14 4,-4 10,-4 14,0 57,53 109,84 162,92 53,8 108,-7 171,-45 50,-31 108,-51 168,-47 50,4 100,25 148,72 4,4 4,10 0,14 -4,4 -10,4 -14,0 -44,-43 -90,-63 -135,-66 -55,-4 -109,15 -156,44 -67,41 -126,57 -184,48 -57,-9 -112,-42 -172,-97z"/>
  <g>
  </g>
  <g style="clip-path:url(#id0)">
   <g>
    <path class="fil2" d="M726 158l-399 0c-76,0 -139,62 -139,139l0 223c0,76 62,139 139,139l21 0 48 61c4,5 9,8 16,8 6,0 12,-3 16,-8l48 -61 251 0c76,0 139,-62 139,-139l0 -223c0,-76 -62,-139 -139,-139zm-165 305l0 156 -69 0 0 -156c0,-11 -9,-20 -20,-20l-244 0 0 -69 244 0c11,0 20,-9 20,-20l0 -156 69 0 0 156c0,11 9,20 20,20l244 0 0 69 -244 0c-11,0 -20,9 -20,20zm40 -265l108 0 -108 108 0 -108zm-149 108l-108 -108 108 0 0 108zm149 205l108 108 -108 0 0 -108zm224 -214l0 37 -196 0 131 -131c38,14 66,50 66,93zm-532 -93l131 131 -196 0 0 -37c0,-43 27,-80 66,-93zm-66 316l0 -37 196 0 -131 131c-38,-14 -66,-50 -66,-93zm222 107l-39 49 -39 -49c-4,-5 -9,-8 -16,-8l-13 0 108 -108 0 114c-1,1 -2,1 -2,2zm309 -13l-131 -131 196 0 0 37c0,43 -27,80 -66,93z"/>
   </g>
  </g>
  <path class="fil3" d="M525 201c-116,0 -209,94 -209,209 0,116 94,209 209,209 116,0 209,-94 209,-209 0,-116 -94,-209 -209,-209z"/>
  <rect class="fil3" width="1000" height="1000"/>
 </g>
</svg>
