<?xml version="1.0" encoding="UTF-8"?>
<!DOCTYPE svg PUBLIC "-//W3C//DTD SVG 1.1//EN" "http://www.w3.org/Graphics/SVG/1.1/DTD/svg11.dtd">
<!-- Creator: CorelDRAW X6 -->
<svg xmlns="http://www.w3.org/2000/svg" xml:space="preserve" width="1000px" height="1000px" version="1.1" style="shape-rendering:geometricPrecision; text-rendering:geometricPrecision; image-rendering:optimizeQuality; fill-rule:evenodd; clip-rule:evenodd"
viewBox="0 0 1000 1000"
 xmlns:xlink="http://www.w3.org/1999/xlink">
 <defs>
  <style type="text/css">
   <![CDATA[
    .fil6 {fill:none}
    .fil5 {fill:#00A859}
    .fil1 {fill:#CCE7D4}
    .fil3 {fill:#FFF688}
    .fil4 {fill:#21744A}
    .fil2 {fill:#DCDE21}
    .fil0 {fill:#21744A;fill-rule:nonzero}
   ]]>
  </style>
 </defs>
 <g id="Camada_x0020_1">
  <metadata id="CorelCorpID_0Corel-Layer"/>
  <path class="fil0" d="M170 791c-4,-4 -4,-10 0,-14 4,-4 10,-4 14,0 57,53 109,84 162,92 53,8 108,-7 171,-45 50,-31 108,-51 168,-47 50,4 100,25 148,72 4,4 4,10 0,14 -4,4 -10,4 -14,0 -44,-43 -90,-63 -135,-66 -55,-4 -109,15 -156,44 -67,41 -126,57 -184,48 -57,-9 -112,-42 -172,-97z"/>
  <path class="fil1" d="M530 716c156,0 283,-127 283,-283 0,-156 -127,-283 -283,-283 -156,0 -283,127 -283,283 0,59 105,39 150,113 35,59 -49,122 25,148 34,12 70,22 108,22zm0 -37c136,0 247,-110 247,-247 0,-136 -110,-247 -247,-247 -136,0 -247,110 -247,247 2,25 94,10 144,93 46,85 -27,124 24,141 25,8 51,13 79,13z"/>
  <g id="_777598784">
   <path class="fil2" d="M685 392c26,-18 32,-53 14,-79 -18,-26 -53,-32 -79,-14 -26,18 -32,53 -14,79 18,26 53,32 79,14zm-43 -62c9,-6 20,-4 26,5 6,9 4,20 -5,26 -9,6 -20,4 -26,-5 -6,-9 -4,-20 5,-26z"/>
   <path class="fil1" d="M520 338c31,-3 54,-30 52,-61 -3,-31 -30,-54 -61,-52 -31,3 -54,30 -52,61 3,31 30,54 61,52zm-7 -75c10,-1 20,7 20,17 1,10 -7,20 -17,20 -10,1 -20,-7 -20,-17 -1,-10 7,-20 17,-20z"/>
   <path class="fil3" d="M485 588c3,31 30,54 62,52 31,-3 54,-30 52,-61 -3,-31 -30,-54 -61,-52 -31,3 -54,30 -52,61zm55 -24c10,-1 20,7 20,17 1,10 -7,20 -17,21 -10,1 -20,-7 -21,-17 -1,-10 7,-20 17,-20z"/>
   <path class="fil4" d="M614 472c-13,28 -1,62 27,75 28,13 62,1 75,-27 13,-28 1,-62 -27,-75 -28,-13 -62,-1 -75,27zm69 32c-4,9 -16,14 -25,9 -9,-4 -14,-16 -9,-25 4,-9 16,-14 25,-9 9,4 14,16 9,25z"/>
  </g>
  <g id="_777803952">
   <path class="fil5" d="M358 545c-3,-20 -15,-36 -31,-46l0 0c-1,-13 -3,-26 -4,-39 -1,-5 -1,-10 -2,-14l0 0c-2,-12 -3,-23 -5,-35l0 0c-3,-17 -9,-52 -9,-53l1 0c-4,-23 -8,-45 -13,-66l0 0c-2,-11 -5,-21 -7,-31 -14,-58 -30,-109 -47,-155 -5,-10 -16,-32 -36,-29 -20,3 -23,29 -24,39 -2,16 -2,37 -1,64 3,54 11,124 24,198 9,48 19,96 29,137l0 0c-11,15 -16,34 -13,54l6 35c3,19 -10,37 -29,40l6 34 70 -12c57,-10 94,-65 84,-122z"/>
   <path class="fil1" d="M262 598l-6 -35c-3,-19 9,-37 28,-40 19,-3 37,9 40,28 7,38 -18,75 -56,82l-9 2c4,-11 6,-24 3,-36z"/>
   <path class="fil5" d="M249 423l33 -6c4,24 7,48 9,70 -5,0 -9,0 -14,1 -5,1 -9,2 -13,4 -5,-22 -10,-45 -15,-69z"/>
   <path class="fil2" d="M216 193c-2,-28 -2,-47 -1,-60 5,12 11,30 19,57 14,48 28,111 39,176 1,6 2,11 3,17l-34 6c-1,-6 -2,-11 -3,-17 -11,-65 -20,-129 -23,-179z"/>
  </g>
  <rect class="fil6" width="1000" height="1000"/>
 </g>
</svg>
