<?xml version="1.0" encoding="UTF-8"?>
<!DOCTYPE svg PUBLIC "-//W3C//DTD SVG 1.1//EN" "http://www.w3.org/Graphics/SVG/1.1/DTD/svg11.dtd">
<!-- Creator: CorelDRAW X6 -->
<svg xmlns="http://www.w3.org/2000/svg" xml:space="preserve" width="1000px" height="1000px" version="1.1" style="shape-rendering:geometricPrecision; text-rendering:geometricPrecision; image-rendering:optimizeQuality; fill-rule:evenodd; clip-rule:evenodd"
viewBox="0 0 1000 1000"
 xmlns:xlink="http://www.w3.org/1999/xlink">
 <defs>
  <style type="text/css">
   <![CDATA[
    .fil5 {fill:none}
    .fil1 {fill:#00A859}
    .fil2 {fill:#CCE7D4}
    .fil4 {fill:#FEFEFE}
    .fil3 {fill:#DCDE21}
    .fil0 {fill:#21744A;fill-rule:nonzero}
   ]]>
  </style>
 </defs>
 <g id="Camada_x0020_1">
  <metadata id="CorelCorpID_0Corel-Layer"/>
  <path class="fil0" d="M170 791c-4,-4 -4,-10 0,-14 4,-4 10,-4 14,0 57,53 109,84 162,92 53,8 108,-7 171,-45 50,-31 108,-51 168,-47 50,4 100,25 148,72 4,4 4,10 0,14 -4,4 -10,4 -14,0 -44,-43 -90,-63 -135,-66 -55,-4 -109,15 -156,44 -67,41 -126,57 -184,48 -57,-9 -112,-42 -172,-97z"/>
  <g id="_774936592">
   <path class="fil1" d="M773 170c-1,-5 -5,-8 -9,-9 -18,-5 -36,-4 -53,2 9,-6 17,-15 20,-27 3,-12 2,-24 -5,-35 -6,-11 -16,-18 -28,-22 -25,-7 -50,8 -57,33 -3,12 -1,24 4,33 -12,-14 -28,-23 -45,-28 -5,-1 -9,0 -13,4 -3,3 -4,8 -3,13 11,33 12,67 6,101l-5 -1c-7,-2 -14,2 -16,9 -2,7 2,13 8,16l-15 55c-15,58 -61,104 -118,121 -4,1 -8,5 -9,9l-10 37c-3,-7 -6,-14 -8,-22l-15 -54 5 -1c7,-2 11,-9 9,-16 -2,-7 -9,-11 -16,-9l-7 2 -1 -60c0,-11 -5,-21 -14,-28 -8,-6 -17,-8 -26,-7 0,-1 1,-1 1,-2 2,-4 6,-7 11,-8 3,-1 6,-3 8,-6 2,-3 2,-7 1,-10l-13 -50c-1,-3 -3,-6 -6,-8 -3,-2 -7,-2 -10,-1 -5,1 -10,1 -14,-2 -4,-2 -7,-6 -8,-11 -1,-3 -3,-6 -6,-8 -3,-2 -7,-2 -10,-1l-50 13c-3,1 -6,3 -8,6 -2,3 -2,7 -1,10 1,5 1,10 -2,14 -2,4 -6,7 -11,8 -7,2 -11,9 -9,16l13 50c2,7 9,11 16,9 6,-1 11,0 16,3 -9,4 -16,10 -19,19 -4,10 -4,22 2,32l29 53 -7 2c-7,2 -11,9 -9,16 2,6 7,10 13,10 1,0 2,0 3,0l5 -1 15 54c15,58 0,120 -41,163 -3,3 -4,8 -3,12l18 67c1,3 3,6 6,8 2,1 4,2 6,2l0 0c1,0 2,0 3,0l261 -70c3,-1 6,-3 8,-6 2,-3 2,-7 1,-10l-18 -67c-1,-4 -4,-8 -9,-9 -27,-8 -52,-23 -72,-43l47 13c7,2 14,-2 16,-9 2,-7 -2,-14 -9,-16l-72 -19 11 -42 257 69 -11 42 -72 -19c-7,-2 -14,2 -16,9 -2,7 2,14 9,16l85 23c1,0 2,0 3,0 2,0 4,-1 6,-2 3,-2 5,-5 6,-8l18 -67c1,-4 0,-9 -3,-12 -41,-43 -57,-106 -41,-164l15 -55c1,0 2,0 2,0 6,0 11,-4 13,-10 2,-7 -2,-14 -9,-16l-5 -1c11,-32 30,-61 55,-84 4,-3 5,-8 4,-13z"/>
   <path class="fil2" d="M689 260l-75 -20c6,-29 6,-59 1,-88 7,5 13,12 18,19 4,6 11,8 17,5 7,-4 15,-7 23,-8 6,5 12,11 16,18 4,6 11,8 17,5 8,-4 16,-7 25,-8 -19,22 -34,48 -43,77z"/>
   <path class="fil2" d="M697 498l-208 -56c18,-10 35,-22 49,-37 24,-24 41,-54 50,-87l15 -54 86 23 -15 54c-9,33 -9,67 -1,100 5,20 13,39 24,57z"/>
   <g>
    <polygon class="fil3" points="298,711 287,669 523,605 535,647 "/>
    <path class="fil3" d="M328 480l-15 -54 66 -18 15 54c9,33 26,63 49,87 14,15 31,27 49,37l-188 50c11,-17 19,-37 24,-57 8,-33 8,-67 -1,-100z"/>
    <path class="fil3" d="M277 342c-2,-3 -2,-6 0,-9 1,-3 4,-5 7,-6l73 -20c3,-1 6,0 9,2 2,2 4,5 4,8l1 67 -60 16 -33 -58z"/>
    <path class="fil4" d="M255 245c12,-8 20,-21 21,-36l29 -8c4,6 9,11 15,15 6,4 13,6 20,6l8 29c-6,4 -11,9 -15,15 -4,6 -6,13 -6,20l-29 8c-8,-12 -21,-20 -36,-21l-8 -29z"/>
   </g>
   <path class="fil4" d="M666 117c2,-9 11,-15 20,-15 2,0 4,0 5,1 5,1 10,5 12,10 3,5 3,10 2,16 -3,11 -14,17 -25,14 -11,-3 -17,-14 -14,-25z"/>
  </g>
  <rect class="fil5" width="1000" height="1000"/>
 </g>
</svg>
