<?xml version="1.0" encoding="UTF-8"?>
<!DOCTYPE svg PUBLIC "-//W3C//DTD SVG 1.1//EN" "http://www.w3.org/Graphics/SVG/1.1/DTD/svg11.dtd">
<!-- Creator: CorelDRAW X6 -->
<svg xmlns="http://www.w3.org/2000/svg" xml:space="preserve" width="1000px" height="1000px" version="1.1" style="shape-rendering:geometricPrecision; text-rendering:geometricPrecision; image-rendering:optimizeQuality; fill-rule:evenodd; clip-rule:evenodd"
viewBox="0 0 1000 1000"
 xmlns:xlink="http://www.w3.org/1999/xlink">
 <defs>
  <style type="text/css">
   <![CDATA[
    .str0 {stroke:#DCDE21;stroke-width:0.508}
    .fil3 {fill:none}
    .fil0 {fill:#00A859}
    .fil1 {fill:#DCDE21}
    .fil2 {fill:#21744A;fill-rule:nonzero}
   ]]>
  </style>
 </defs>
 <g id="Camada_x0020_1">
  <metadata id="CorelCorpID_0Corel-Layer"/>
  <path class="fil0" d="M546 281l-49 279c-9,-6 -21,-11 -33,-13 -39,-7 -73,11 -78,40 -5,29 21,57 60,64 39,7 73,-11 78,-40l40 -229 218 -23 -31 174c-9,-6 -21,-11 -33,-13 -39,-7 -73,11 -78,40 -5,29 21,57 60,64 39,7 73,-11 78,-40l59 -334 -291 30zm-95 335c-21,-4 -33,-16 -32,-23 1,-7 17,-15 38,-11 21,4 33,16 32,23 -1,7 -17,15 -38,11zm119 -270l6 -33 218 -23 -6 33 -218 23zm135 244c-21,-4 -33,-16 -32,-23 1,-7 17,-15 38,-11 21,4 33,16 32,23 -1,7 -17,15 -38,11z"/>
  <path class="fil1 str0" d="M458 173c-29,-64 -99,-103 -171,-91l-17 3 50 286c-11,-4 -24,-5 -36,-3 -38,7 -64,43 -57,81 7,38 43,64 81,57 38,-7 64,-43 57,-81l-55 -310c44,-1 85,21 108,58l40 0zm-156 299c-19,3 -37,-9 -41,-28 -3,-19 9,-37 28,-41 19,-3 37,9 41,28 3,19 -9,37 -28,41z"/>
  <path class="fil2" d="M170 791c-4,-4 -4,-10 0,-14 4,-4 10,-4 14,0 57,53 109,84 162,92 53,8 108,-7 171,-45 50,-31 108,-51 168,-47 50,4 100,25 148,72 4,4 4,10 0,14 -4,4 -10,4 -14,0 -44,-43 -90,-63 -135,-66 -55,-4 -109,15 -156,44 -67,41 -126,57 -184,48 -57,-9 -112,-42 -172,-97z"/>
  <rect class="fil3" width="1000" height="1000"/>
 </g>
</svg>
