<?xml version="1.0" encoding="UTF-8"?>
<!DOCTYPE svg PUBLIC "-//W3C//DTD SVG 1.1//EN" "http://www.w3.org/Graphics/SVG/1.1/DTD/svg11.dtd">
<!-- Creator: CorelDRAW X6 -->
<svg xmlns="http://www.w3.org/2000/svg" xml:space="preserve" width="1000px" height="1000px" version="1.1" style="shape-rendering:geometricPrecision; text-rendering:geometricPrecision; image-rendering:optimizeQuality; fill-rule:evenodd; clip-rule:evenodd"
viewBox="0 0 1000 1000"
 xmlns:xlink="http://www.w3.org/1999/xlink">
 <defs>
  <style type="text/css">
   <![CDATA[
    .fil4 {fill:none}
    .fil1 {fill:#00A859}
    .fil2 {fill:#CCE7D4}
    .fil3 {fill:#DCDE21}
    .fil0 {fill:#21744A;fill-rule:nonzero}
   ]]>
  </style>
 </defs>
 <g id="Camada_x0020_1">
  <metadata id="CorelCorpID_0Corel-Layer"/>
  <path class="fil0" d="M170 791c-4,-4 -4,-10 0,-14 4,-4 10,-4 14,0 57,53 109,84 162,92 53,8 108,-7 171,-45 50,-31 108,-51 168,-47 50,4 100,25 148,72 4,4 4,10 0,14 -4,4 -10,4 -14,0 -44,-43 -90,-63 -135,-66 -55,-4 -109,15 -156,44 -67,41 -126,57 -184,48 -57,-9 -112,-42 -172,-97z"/>
  <path class="fil1" d="M711 110c-20,0 -38,7 -53,18l0 0c0,-10 -8,-18 -18,-18l-281 0c-10,0 -18,8 -18,18l0 0c-15,-11 -33,-18 -53,-18 -49,0 -89,39 -89,88 0,49 43,80 81,107 31,22 61,44 61,69 0,62 46,113 105,122l0 39 -88 0c-8,0 -15,5 -17,13l-35 141c-1,5 0,11 3,15 3,4 8,7 14,7l352 0c5,0 11,-2 14,-7 3,-4 5,-10 3,-15l-35 -141c-2,-8 -9,-13 -17,-13l-88 0 0 -39c60,-9 105,-60 105,-122 0,-25 30,-46 61,-69 38,-27 81,-58 81,-107 0,-49 -40,-88 -89,-88zm-410 166c-34,-24 -66,-47 -66,-78 0,-29 25,-53 54,-53 29,0 53,24 53,53 0,10 -8,18 -18,18 -10,0 -18,-8 -18,-18 0,-10 -8,-18 -18,-18 -10,0 -18,8 -18,18 0,29 24,53 53,53l0 0c6,0 12,-1 18,-3l0 60c-12,-11 -26,-21 -40,-31zm352 399l-307 0 26 -105 254 0 26 105zm-118 -213c-10,0 -18,8 -18,18l0 55 -35 0 0 -55c0,-10 -8,-18 -18,-18 -48,0 -88,-39 -88,-88l0 -229 246 0 0 229c0,48 -39,88 -88,88zm163 -185c-14,10 -28,20 -40,31l0 -60c6,2 11,3 18,3l0 0c29,0 53,-24 53,-53 0,-10 -8,-18 -18,-18 -10,0 -18,8 -18,18 0,10 -8,18 -18,18 -10,0 -18,-8 -18,-18 0,-29 24,-53 53,-53 29,0 54,24 54,53 0,31 -32,54 -66,78z"/>
  <path class="fil2" d="M412 622c0,10 8,18 18,18l141 0c10,0 18,-8 18,-18 0,-10 -8,-18 -18,-18l-141 0c-10,0 -18,8 -18,18z"/>
  <path class="fil3" d="M569 265l-37 -5 -17 -34c-3,-6 -9,-10 -16,-10 -7,0 -13,4 -16,10l-17 34 -37 5c-7,1 -12,6 -14,12 -2,6 0,13 4,18l27 26 -6 37c-1,7 2,13 7,17 5,4 13,4 19,1l33 -17 33 17c6,3 13,3 19,-1 5,-4 8,-11 7,-17l-6 -37 27 -26c5,-5 7,-12 4,-18 -2,-6 -8,-11 -14,-12zm-48 37c-4,4 -6,10 -5,16l2 11 -10 -5c-5,-3 -11,-3 -16,0l-10 5 2 -11c1,-6 -1,-12 -5,-16l-8 -8 11 -2c6,-1 11,-4 13,-10l5 -10 5 10c3,5 8,9 13,10l11 2 -8 8z"/>
  <rect class="fil4" width="1000" height="1000"/>
 </g>
</svg>
