<?xml version="1.0" encoding="UTF-8"?>
<!DOCTYPE svg PUBLIC "-//W3C//DTD SVG 1.1//EN" "http://www.w3.org/Graphics/SVG/1.1/DTD/svg11.dtd">
<!-- Creator: CorelDRAW X6 -->
<svg xmlns="http://www.w3.org/2000/svg" xml:space="preserve" width="1000px" height="1000px" version="1.1" style="shape-rendering:geometricPrecision; text-rendering:geometricPrecision; image-rendering:optimizeQuality; fill-rule:evenodd; clip-rule:evenodd"
viewBox="0 0 1000 1000"
 xmlns:xlink="http://www.w3.org/1999/xlink">
 <defs>
  <style type="text/css">
   <![CDATA[
    .fil2 {fill:none}
    .fil0 {fill:#00A859}
    .fil1 {fill:#21744A;fill-rule:nonzero}
   ]]>
  </style>
 </defs>
 <g id="Camada_x0020_1">
  <metadata id="CorelCorpID_0Corel-Layer"/>
  <path class="fil0" d="M788 468l-12 0c-2,-12 -8,-23 -16,-32l-19 -19c-6,-6 -9,-13 -10,-21 13,-5 23,-18 23,-33 0,-9 -3,-17 -9,-24 6,-6 9,-14 9,-23 0,-9 -3,-17 -9,-24 6,-6 9,-14 9,-23 0,-9 -3,-17 -9,-24 6,-6 9,-14 9,-23 0,-15 -10,-29 -23,-33l0 -68c0,-6 -5,-12 -12,-12l-148 0c-6,0 -12,5 -12,12l0 12c-12,2 -24,8 -33,17l-19 19c-5,5 -12,9 -20,10 -5,-14 -18,-23 -33,-23 -9,0 -17,4 -23,9 -6,-6 -15,-9 -23,-9 -9,0 -17,4 -23,9 -6,-6 -15,-9 -23,-9 -9,0 -17,4 -23,9 -6,-6 -15,-9 -23,-9 -15,0 -28,10 -33,23l-68 0c-6,0 -12,5 -12,12l0 148c0,6 5,12 12,12l12 0c1,13 7,25 17,35l19 19c5,5 8,11 10,18 -14,5 -24,18 -24,33 0,9 4,17 9,23 -6,6 -9,15 -9,23 0,9 4,17 9,23 -6,6 -9,15 -9,23 0,9 4,17 9,23 -6,6 -9,15 -9,23 0,15 10,28 25,33l0 67c0,6 5,12 12,12l148 0c6,0 12,-5 12,-12l0 -12c13,-2 24,-8 33,-17l19 -19c5,-5 11,-8 18,-10 2,17 17,31 35,31 9,0 17,-3 23,-9 6,6 14,9 23,9 9,0 17,-3 23,-9 6,6 14,9 23,9 9,0 17,-3 23,-9 6,6 14,9 23,9 16,0 29,-10 34,-25l67 0c6,0 12,-5 12,-12l0 -25c0,-6 -5,-12 -12,-12 -6,0 -12,5 -12,12l0 13 -54 0 0 -131c12,0 45,0 54,0l0 13c0,6 5,12 12,12 6,0 12,-5 12,-12l0 -25c0,-6 -5,-12 -12,-12zm-206 -335l124 0 0 54 -124 0 0 -54zm-60 53l19 -19c5,-5 11,-8 17,-10l0 41c0,6 5,12 12,12l148 0c6,0 11,5 11,12 0,6 -5,11 -11,11l-47 0c-6,0 -12,5 -12,12 0,6 5,12 12,12l47 0c6,0 11,5 11,12 0,6 -5,11 -11,11l-47 0c-6,0 -12,5 -12,12 0,6 5,12 12,12l47 0c6,0 11,5 11,12 0,6 -5,11 -11,11l-47 0c-6,0 -12,5 -12,12 0,6 5,12 12,12l47 0c6,0 11,5 11,12 0,6 -5,11 -11,11l-142 0c-16,0 -31,-6 -41,-17 -3,-3 -17,-22 -47,-28l0 -127c13,-2 25,-7 34,-17zm189 282c-6,0 -12,5 -12,12l0 156c0,7 -5,12 -12,12 -6,0 -12,-5 -12,-12l0 -54c0,-6 -5,-12 -12,-12 -6,0 -12,5 -12,12l0 54c0,6 -5,12 -12,12 -6,0 -12,-5 -12,-12l0 -54c0,-6 -5,-12 -12,-12 -6,0 -12,5 -12,12l0 54c0,6 -5,12 -12,12 -6,0 -12,-5 -12,-12l0 -54c0,-6 -5,-12 -12,-12 -6,0 -12,5 -12,12l0 54c0,6 -5,12 -12,12 -6,0 -12,-5 -12,-12l0 -149c0,-16 6,-31 17,-41 3,-3 22,-17 28,-48l126 0c1,13 7,26 17,35l19 19c4,4 8,10 9,16l-41 0zm-293 218l-124 0 0 -54 124 0 0 54zm-195 -483l54 0 0 124 -54 0 0 -124zm254 430l-19 19c-5,5 -11,8 -17,9l0 -41c0,-6 -5,-12 -12,-12l-148 0c-7,0 -13,-5 -13,-11 0,-6 6,-12 13,-12l47 0c6,0 12,-5 12,-12 0,-6 -5,-12 -12,-12l-47 0c-7,0 -13,-5 -13,-11 0,-6 6,-12 13,-12l47 0c6,0 12,-5 12,-12 0,-6 -5,-12 -12,-12l-47 0c-7,0 -13,-5 -13,-11 0,-6 6,-12 13,-12l47 0c6,0 12,-5 12,-12 0,-6 -5,-12 -12,-12l-47 0c-7,0 -13,-5 -13,-11 0,-6 6,-12 13,-12l142 0c15,0 30,6 41,17 3,3 17,22 47,28l0 127c-13,2 -25,7 -34,17zm37 -167c-20,-5 -29,-18 -33,-21 -11,-11 -24,-18 -38,-22 5,-19 18,-28 21,-31 11,-11 18,-25 22,-39 20,5 29,18 32,21 11,11 24,18 39,22 -5,21 -19,30 -21,33 -10,10 -18,23 -21,38zm-257 -97c-5,-5 -8,-11 -10,-18l42 0c6,0 12,-5 12,-12 0,0 0,-147 0,-147 0,-7 6,-12 12,-12 6,0 12,6 12,13l0 47c0,6 5,12 12,12 6,0 12,-5 12,-12l0 -47c0,-7 5,-13 12,-13 6,0 12,6 12,13l0 47c0,6 5,12 12,12 6,0 12,-5 12,-12l0 -47c0,-7 5,-13 12,-13 6,0 12,6 12,13l0 47c0,6 5,12 12,12 6,0 12,-5 12,-12l0 -47c0,-7 5,-13 12,-13 6,0 12,6 12,12 0,0 0,0 0,0l0 142c0,15 -6,30 -17,41 -3,3 -21,17 -28,45l-127 0c-2,-12 -8,-24 -17,-33l-19 -19z"/>
  <path class="fil1" d="M170 791c-4,-4 -4,-10 0,-14 4,-4 10,-4 14,0 57,53 109,84 162,92 53,8 108,-7 171,-45 50,-31 108,-51 168,-47 50,4 100,25 148,72 4,4 4,10 0,14 -4,4 -10,4 -14,0 -44,-43 -90,-63 -135,-66 -55,-4 -109,15 -156,44 -67,41 -126,57 -184,48 -57,-9 -112,-42 -172,-97z"/>
  <rect class="fil2" width="1000" height="1000"/>
 </g>
</svg>
