<?xml version="1.0" encoding="UTF-8"?>
<!DOCTYPE svg PUBLIC "-//W3C//DTD SVG 1.1//EN" "http://www.w3.org/Graphics/SVG/1.1/DTD/svg11.dtd">
<!-- Creator: CorelDRAW X6 -->
<svg xmlns="http://www.w3.org/2000/svg" xml:space="preserve" width="1000px" height="1000px" version="1.1" style="shape-rendering:geometricPrecision; text-rendering:geometricPrecision; image-rendering:optimizeQuality; fill-rule:evenodd; clip-rule:evenodd"
viewBox="0 0 1000 1000"
 xmlns:xlink="http://www.w3.org/1999/xlink">
 <defs>
  <style type="text/css">
   <![CDATA[
    .fil0 {fill:none}
    .fil2 {fill:#00A859}
    .fil4 {fill:#CCE7D4}
    .fil3 {fill:#CCE7D4;fill-rule:nonzero}
    .fil1 {fill:#21744A;fill-rule:nonzero}
   ]]>
  </style>
 </defs>
 <g id="Camada_x0020_1">
  <metadata id="CorelCorpID_0Corel-Layer"/>
  <rect class="fil0" width="1000" height="1000"/>
  <path class="fil1" d="M170 791c-4,-4 -4,-10 0,-14 4,-4 10,-4 14,0 57,53 109,84 162,92 53,8 108,-7 171,-45 50,-31 108,-51 168,-47 50,4 100,25 148,72 4,4 4,10 0,14 -4,4 -10,4 -14,0 -44,-43 -90,-63 -135,-66 -55,-4 -109,15 -156,44 -67,41 -126,57 -184,48 -57,-9 -112,-42 -172,-97z"/>
  <g id="_774936912">
   <path class="fil2" d="M748 110l-8 0 -484 0 -3 0c-29,0 -52,23 -52,52l0 335c0,29 23,52 52,52l203 0 -15 65 -33 0c-22,0 -39,18 -39,39l0 8 -41 0c-7,0 -13,6 -13,13 0,7 6,13 13,13l346 0c7,0 13,-6 13,-13 0,-7 -6,-13 -13,-13l-41 0 0 -8c0,-22 -18,-39 -39,-39l-33 0 -15 -65 203 0c29,0 52,-23 52,-52l0 -335c0,-29 -23,-52 -52,-52zm0 26c15,0 26,12 26,26l0 248 -408 0c-7,0 -13,6 -13,13 0,7 6,13 13,13l408 0 0 61c0,15 -12,26 -26,26 -21,0 -472,0 -495,0 -15,0 -26,-12 -26,-26l0 -61 37 0c7,0 13,-6 13,-13 0,-7 -6,-13 -13,-13l-37 0 0 -248c0,-14 11,-25 25,-26l0 0 0 0c1,0 1,0 2,0l3 0 0 0c164,0 328,0 492,0zm-141 517l0 8 -212 0 0 -8c0,-7 6,-13 13,-13l186 0c7,0 13,6 13,13zm-73 -39l-66 0 15 -65 36 0 15 65z"/>
   <path class="fil2" d="M312 410c-6,1 -10,7 -10,13 0,8 7,14 15,13 7,-1 12,-8 10,-15 -1,-7 -8,-12 -15,-10z"/>
  </g>
  <g id="_774935472">
   <path class="fil3" d="M524 207l0 18c-9,-11 -24,-23 -40,-23 -22,0 -38,12 -47,30 3,-1 5,-2 8,-4 6,-4 14,-3 18,3 6,11 11,22 17,33 1,1 2,2 3,2 8,-2 16,-3 17,6 0,3 2,3 4,3 7,-2 16,-7 24,-11 14,-8 24,-15 30,6 4,15 14,27 23,38 2,3 7,7 2,7 -19,1 -30,-16 -37,-30 -6,-13 -32,-2 -48,11 -7,6 -14,2 -17,-8 -4,-11 -12,-26 -29,-33 -9,-4 -17,0 -23,6 0,3 -1,6 -1,9 -1,33 15,73 53,73 16,0 39,-14 43,-25l0 22 64 0 0 -133 -64 0z"/>
   <path class="fil4" d="M430 236c1,0 2,1 2,1 0,6 -1,12 -2,18 0,0 -1,1 -1,0 -5,-3 -10,-6 -15,-10 -1,-1 0,-2 0,-3 5,-3 11,-5 17,-6z"/>
  </g>
 </g>
</svg>
