<?xml version="1.0" encoding="UTF-8"?>
<!DOCTYPE svg PUBLIC "-//W3C//DTD SVG 1.1//EN" "http://www.w3.org/Graphics/SVG/1.1/DTD/svg11.dtd">
<!-- Creator: CorelDRAW X6 -->
<svg xmlns="http://www.w3.org/2000/svg" xml:space="preserve" width="1000px" height="1000px" version="1.1" style="shape-rendering:geometricPrecision; text-rendering:geometricPrecision; image-rendering:optimizeQuality; fill-rule:evenodd; clip-rule:evenodd"
viewBox="0 0 1000 1000"
 xmlns:xlink="http://www.w3.org/1999/xlink">
 <defs>
  <style type="text/css">
   <![CDATA[
    .fil6 {fill:none}
    .fil0 {fill:#00A859}
    .fil5 {fill:#CCE7D4}
    .fil2 {fill:#FEFEFE}
    .fil3 {fill:#21744A}
    .fil4 {fill:#DCDE21}
    .fil1 {fill:#21744A;fill-rule:nonzero}
   ]]>
  </style>
 </defs>
 <g id="Camada_x0020_1">
  <metadata id="CorelCorpID_0Corel-Layer"/>
  <path class="fil0" d="M263 561c-8,0 -15,-5 -16,-13l1 -280c-1,-5 0,-10 3,-15 3,-4 8,-7 13,-7l471 0c5,0 10,2 13,7 3,4 4,9 3,15l1 280c-2,8 -9,13 -16,13 -90,0 -382,0 -473,0zm462 -280l-451 0 2 246 446 0 2 -246z"/>
  <path class="fil0" d="M263 527c-8,0 -15,5 -16,13l-34 135c-1,5 0,10 3,15 3,4 8,7 13,7l540 0c5,0 10,-2 13,-7 3,-4 4,-9 3,-15l-34 -135c-2,-8 -9,-13 -16,-13 -90,0 -382,0 -473,0zm485 135l-497 0 25 -102 446 0 25 102z"/>
  <path class="fil1" d="M170 791c-4,-4 -4,-10 0,-14 4,-4 10,-4 14,0 57,53 109,84 162,92 53,8 108,-7 171,-45 50,-31 108,-51 168,-47 50,4 100,25 148,72 4,4 4,10 0,14 -4,4 -10,4 -14,0 -44,-43 -90,-63 -135,-66 -55,-4 -109,15 -156,44 -67,41 -126,57 -184,48 -57,-9 -112,-42 -172,-97z"/>
  <path class="fil2" d="M668 313l1 1 46 -46 -15 -15c1,-3 3,-6 4,-9l22 0 0 -65 -22 0c-1,-3 -2,-6 -4,-9l15 -15 -46 -46 -15 15c-3,-1 -6,-3 -9,-4l0 -22 -65 0 0 22c-3,1 -6,2 -9,4l-15 -15 -39 39 -142 41c-2,0 -4,0 -6,0 -11,0 -21,3 -29,8l0 0c-7,4 -13,10 -17,16l0 0c-3,5 -6,10 -8,16l0 0c-2,5 -2,11 -2,16l0 0c0,23 14,43 33,52l15 112c-5,9 -8,20 -8,31 0,36 29,65 65,65 36,0 65,-29 65,-65 0,-25 -14,-46 -34,-57l-39 -98c7,-7 12,-16 14,-26l75 -34 0 20 22 0c1,3 2,6 4,9l-15 15 46 46 15 -15c3,1 6,3 9,4l0 22 65 0 0 -22c3,-1 5,-2 8,-3l16 14 0 0z"/>
  <path class="fil3" d="M691 268l-23 23 -13 -13 -5 3c-5,3 -11,5 -17,7l-6 2 0 18 -32 0 0 -18 -6 -2c-6,-2 -12,-4 -17,-7l-5 -3 -13 13 -23 -23 13 -13 -3 -5c-3,-5 -5,-11 -7,-17l-2 -6 -18 0 0 -32 18 0 2 -6c2,-6 4,-12 7,-17l3 -5 -13 -13 23 -23 13 13 5 -3c5,-3 11,-5 17,-7l6 -2 0 -18 32 0 0 18 6 2c6,2 12,4 17,7l5 3 13 -13 23 23 -13 13 3 5c3,5 5,11 7,17l2 6 18 0 0 32 -18 0 -2 6c-2,6 -4,12 -7,17l-3 5 13 13zm-24 45l1 1 46 -46 -15 -15c1,-3 3,-6 4,-9l22 0 0 -65 -22 0c-1,-3 -2,-6 -4,-9l15 -15 -46 -46 -15 15c-3,-1 -6,-3 -9,-4l0 -22 -65 0 0 22c-3,1 -6,2 -9,4l-15 -15 -39 39 -142 41c-2,0 -4,0 -6,0 -11,0 -21,3 -29,8l0 0c-7,4 -13,10 -17,16l0 0c-3,5 -6,10 -8,16l0 0c-2,5 -2,11 -2,16l0 0c0,23 14,43 33,52l15 112c-5,9 -8,20 -8,31 0,36 29,65 65,65 36,0 65,-29 65,-65 0,-25 -14,-46 -34,-57l-39 -98c7,-7 12,-16 14,-26l75 -34 0 20 22 0c1,3 2,6 4,9l-15 15 46 46 15 -15c3,1 6,3 9,4l0 22 65 0 0 -22c3,-1 5,-2 8,-3l16 14 0 0zm-260 -70c0,22 -18,41 -41,41 -22,0 -41,-18 -41,-41 0,-22 18,-41 41,-41 22,0 41,18 41,41zm8 146c27,0 49,22 49,49 0,27 -22,49 -49,49 -27,0 -49,-22 -49,-49 0,-27 22,-49 49,-49zm-22 -96l32 81c-3,-1 -7,-1 -11,-1 -17,0 -32,6 -43,17l-12 -90c2,0 4,0 7,0 10,0 19,-3 27,-7zm122 -131l6 6c-1,3 -3,6 -4,9l-22 0 0 27 -73 33c-1,-18 -11,-33 -25,-43l118 -34z"/>
  <path class="fil3" d="M611 162c-27,0 -49,22 -49,49 0,27 22,49 49,49 12,0 24,-5 33,-13l-11 -12c-6,6 -14,9 -22,9 -18,0 -32,-15 -32,-32 0,-18 15,-32 32,-32 18,0 32,15 32,32 0,5 -1,10 -4,15l14 7c4,-7 5,-15 5,-22 0,-27 -22,-49 -49,-49z"/>
  <path class="fil3" d="M416 422c9,0 16,7 16,16 0,9 -7,16 -16,16 -9,0 -16,-7 -16,-16 0,-9 7,-16 16,-16zm0 49c18,0 32,-15 32,-32 0,-18 -15,-32 -32,-32 -18,0 -32,15 -32,32 0,18 15,32 32,32z"/>
  <path class="fil3" d="M367 235c4,0 8,4 8,8 0,4 -4,8 -8,8 -4,0 -8,-4 -8,-8 0,-4 4,-8 8,-8zm0 32c13,0 24,-11 24,-24 0,-13 -11,-24 -24,-24 -13,0 -24,11 -24,24 0,13 11,24 24,24z"/>
  <path class="fil4" d="M585 379l97 0 0 114 -97 0 0 -114zm-16 130l130 0 0 -146 -130 0 0 146z"/>
  <polygon class="fil4" points="601,395 666,395 666,411 601,411 "/>
  <polygon class="fil4" points="601,427 666,427 666,444 601,444 "/>
  <polygon class="fil4" points="601,460 666,460 666,476 601,476 "/>
  <polygon class="fil5" points="350,582 650,582 654,598 346,598 "/>
  <polygon class="fil5" points="342,614 658,614 662,630 338,630 "/>
  <rect class="fil6" width="1000" height="1000"/>
 </g>
</svg>
