<?xml version="1.0" encoding="UTF-8"?>
<!DOCTYPE svg PUBLIC "-//W3C//DTD SVG 1.1//EN" "http://www.w3.org/Graphics/SVG/1.1/DTD/svg11.dtd">
<!-- Creator: CorelDRAW X6 -->
<svg xmlns="http://www.w3.org/2000/svg" xml:space="preserve" width="1000px" height="1000px" version="1.1" style="shape-rendering:geometricPrecision; text-rendering:geometricPrecision; image-rendering:optimizeQuality; fill-rule:evenodd; clip-rule:evenodd"
viewBox="0 0 1000 1000"
 xmlns:xlink="http://www.w3.org/1999/xlink">
 <defs>
  <style type="text/css">
   <![CDATA[
    .str0 {stroke:#00A859;stroke-width:10}
    .fil2 {fill:none}
    .fil1 {fill:#00A859}
    .fil0 {fill:#21744A;fill-rule:nonzero}
   ]]>
  </style>
 </defs>
 <g id="Camada_x0020_1">
  <metadata id="CorelCorpID_0Corel-Layer"/>
  <path class="fil0" d="M170 791c-4,-4 -4,-10 0,-14 4,-4 10,-4 14,0 57,53 109,84 162,92 53,8 108,-7 171,-45 50,-31 108,-51 168,-47 50,4 100,25 148,72 4,4 4,10 0,14 -4,4 -10,4 -14,0 -44,-43 -90,-63 -135,-66 -55,-4 -109,15 -156,44 -67,41 -126,57 -184,48 -57,-9 -112,-42 -172,-97z"/>
  <g id="_774934704">
   <path class="fil1 str0" d="M361 499c-15,0 -27,12 -27,27 0,15 12,27 27,27 15,0 27,-12 27,-27 0,-15 -12,-27 -27,-27zm0 37c-5,0 -10,-4 -10,-10 0,-5 4,-10 10,-10 5,0 10,4 10,10 0,5 -4,10 -10,10z"/>
   <path class="fil1 str0" d="M404 183c0,-24 -19,-43 -43,-43 -24,0 -43,19 -43,43 0,24 19,43 43,43 24,0 43,-19 43,-43zm-68 0c0,-14 11,-25 25,-25 14,0 25,11 25,25 0,14 -11,25 -25,25 -14,0 -25,-11 -25,-25z"/>
   <path class="fil1 str0" d="M540 264c-15,0 -27,12 -27,27 0,15 12,27 27,27 15,0 27,-12 27,-27 0,-15 -12,-27 -27,-27zm0 37c-5,0 -10,-4 -10,-10 0,-5 4,-10 10,-10 5,0 10,4 10,10 0,5 -4,10 -10,10z"/>
   <path class="fil1 str0" d="M798 449l-57 -57 0 -40c10,-2 18,-11 18,-22 0,-5 -4,-9 -9,-9 -5,0 -9,4 -9,9 0,2 -2,4 -4,4l-55 0c-2,0 -4,-2 -4,-4l0 -51 21 -10c7,-3 14,-3 21,0l11 5c6,3 11,9 11,17 0,5 4,9 9,9 5,0 9,-4 9,-9 0,-14 -8,-27 -21,-33l-11 -5c-11,-5 -24,-5 -36,0l-24 11 -78 -8c-11,-16 -30,-27 -51,-27 -30,0 -55,21 -60,50l-69 -37c14,-12 25,-29 28,-48l44 31c2,1 3,2 5,2 3,0 6,-1 7,-4 3,-4 2,-9 -2,-12l-54 -38c-4,-39 -37,-69 -77,-69 -43,0 -78,35 -78,78 0,28 15,52 37,66l-16 231c-13,14 -20,32 -20,53l0 60c-19,0 -37,12 -41,31 -14,0 -26,5 -30,19l-7 33c-3,15 9,30 24,30l197 0c5,0 9,-4 9,-9 0,-5 -4,-9 -9,-9l-197 0c-5,0 -8,-4 -7,-9l7 -33c1,-3 4,-6 7,-6l249 0c3,0 6,2 7,6l7 33c1,4 -2,9 -7,9l-23 0c-5,0 -9,4 -9,9 0,5 4,9 9,9l23 0c16,0 28,-15 24,-30l-7 -33c-3,-15 -16,-20 -30,-19 -4,-19 -22,-31 -41,-31l0 -60c0,-20 -8,-39 -20,-53l-15 -221 76 41c4,30 30,53 61,53 21,0 40,-11 51,-27l71 -7 0 13c0,11 8,20 18,22l0 40 -57 57c-9,9 -9,23 0,32 13,13 27,21 43,29 20,10 39,-16 23,-32l-13 -13 27 -27c4,-4 10,-4 14,0l28 28 -14 15c-15,16 5,42 25,31 14,-8 28,-16 40,-28 10,-9 12,-24 2,-34zm-497 -267c0,-33 27,-60 60,-60 33,0 60,27 60,60 0,33 -27,60 -60,60 -33,0 -60,-27 -60,-60zm60 78c8,0 17,-1 24,-4l14 208c-11,-7 -25,-10 -39,-10 -14,0 -27,4 -39,10l14 -208c8,2 16,4 24,4zm100 363l-201 0c3,-8 11,-13 20,-13l160 0c9,0 17,6 20,13zm-40 -31l-120 0 0 -60c0,-33 27,-60 60,-60 33,0 60,27 60,60l0 60zm118 -257c-24,0 -44,-20 -44,-44 0,-24 20,-44 44,-44 24,0 44,20 44,44 0,24 -20,44 -44,44zm59 -28c1,-5 2,-10 2,-16 0,-5 -1,-11 -2,-16l63 6 0 19 -63 6zm125 46l0 34 -26 0 0 -34 26 0zm62 116c-11,11 -25,19 -38,27 -2,1 -4,-2 -3,-3l20 -21c3,-3 3,-9 0,-12l-34 -34c-5,-5 -13,-8 -20,-8 -7,0 -14,3 -20,8l-34 34c-3,3 -3,9 0,12l20 19c1,1 0,5 -3,3 -14,-7 -27,-14 -39,-26 -2,-2 -2,-5 0,-7l57 -57 37 0 57 57c2,2 2,5 0,7z"/>
  </g>
  <rect class="fil2" width="1000" height="1000"/>
 </g>
</svg>
