<?xml version="1.0" encoding="UTF-8"?>
<!DOCTYPE svg PUBLIC "-//W3C//DTD SVG 1.1//EN" "http://www.w3.org/Graphics/SVG/1.1/DTD/svg11.dtd">
<!-- Creator: CorelDRAW X6 -->
<svg xmlns="http://www.w3.org/2000/svg" xml:space="preserve" width="1000px" height="1000px" version="1.1" style="shape-rendering:geometricPrecision; text-rendering:geometricPrecision; image-rendering:optimizeQuality; fill-rule:evenodd; clip-rule:evenodd"
viewBox="0 0 1000 1000"
 xmlns:xlink="http://www.w3.org/1999/xlink">
 <defs>
  <style type="text/css">
   <![CDATA[
    .fil0 {fill:none}
    .fil3 {fill:#CCE7D4}
    .fil1 {fill:#21744A}
    .fil2 {fill:#6B952F}
    .fil4 {fill:#DCDE21}
    .fil5 {fill:#21744A;fill-rule:nonzero}
   ]]>
  </style>
 </defs>
 <g id="Camada_x0020_1">
  <metadata id="CorelCorpID_0Corel-Layer"/>
  <rect class="fil0" width="1000" height="1000"/>
  <g id="_774934384">
   <g>
    <path class="fil1" d="M431 341l-187 0 0 -187 187 0 0 187zm22 -231l-231 0c-12,0 -22,10 -22,22l0 231c0,12 10,22 22,22l231 0c12,0 22,-10 22,-22l0 -231c0,-12 -10,-22 -22,-22z"/>
    <path class="fil2" d="M756 341l-187 0 0 -187 187 0 0 187zm22 -231l-231 0c-12,0 -22,10 -22,22l0 231c0,12 10,22 22,22l231 0c12,0 22,-10 22,-22l0 -231c0,-12 -10,-22 -22,-22z"/>
    <path class="fil3" d="M431 665l-187 0 0 -187 187 0 0 187zm22 -231l-231 0c-12,0 -22,10 -22,22l0 231c0,12 10,22 22,22l231 0c12,0 22,-10 22,-22l0 -231c0,-12 -10,-22 -22,-22z"/>
    <path class="fil4" d="M756 665l-187 0 0 -187 187 0 0 187zm22 -231l-231 0c-12,0 -22,10 -22,22l0 231c0,12 10,22 22,22l231 0c12,0 22,-10 22,-22l0 -231c0,-12 -10,-22 -22,-22z"/>
   </g>
   <path class="fil5" d="M170 791c-4,-4 -4,-10 0,-14 4,-4 10,-4 14,0 57,53 109,84 162,92 53,8 108,-7 171,-45 50,-31 108,-51 168,-47 50,4 100,25 148,72 4,4 4,10 0,14 -4,4 -10,4 -14,0 -44,-43 -90,-63 -135,-66 -55,-4 -109,15 -156,44 -67,41 -126,57 -184,48 -57,-9 -112,-42 -172,-97z"/>
  </g>
 </g>
</svg>
