<?xml version="1.0" standalone="no"?>
<!DOCTYPE svg PUBLIC "-//W3C//DTD SVG 20010904//EN"
 "http://www.w3.org/TR/2001/REC-SVG-20010904/DTD/svg10.dtd">
<svg version="1.0" xmlns="http://www.w3.org/2000/svg"
 width="215.000000pt" height="215.000000pt" viewBox="0 0 215.000000 215.000000"
 preserveAspectRatio="xMidYMid meet">
<metadata>
Created by potrace 1.11, written by Peter Selinger 2001-2013
</metadata>
<g transform="translate(0.000000,215.000000) scale(0.100000,-0.100000)"
fill="#000000" stroke="none">
<path d="M1386 1925 c-17 -13 -34 -21 -38 -19 -5 3 -7 1 -6 -4 2 -5 -21 -28
-50 -51 -30 -24 -100 -90 -156 -147 -56 -57 -106 -104 -111 -104 -6 0 -22 10
-37 23 -16 12 -48 38 -72 56 -25 19 -42 39 -40 43 3 5 0 7 -8 6 -7 -2 -12 3
-10 10 1 8 -1 11 -6 8 -4 -2 -23 14 -42 36 -19 22 -45 52 -57 66 -12 14 -19
30 -16 35 3 6 1 7 -4 4 -6 -4 -18 5 -28 19 -23 35 -32 22 -40 -54 -4 -35 -8
-72 -10 -83 -2 -11 -7 -100 -11 -197 -3 -97 -7 -182 -7 -189 0 -6 -5 -9 -11
-7 -6 2 -102 6 -213 8 -111 2 -205 6 -210 9 -5 3 -14 2 -21 -2 -14 -8 37 -86
114 -177 24 -28 40 -55 36 -59 -4 -3 -2 -5 4 -3 6 2 33 -19 60 -46 27 -27 70
-66 96 -87 l47 -37 -20 -26 c-11 -14 -25 -24 -30 -20 -5 3 -8 2 -7 -3 4 -12
-77 -88 -190 -180 -51 -41 -91 -77 -89 -79 12 -13 73 -17 292 -20 l240 -4 5
-49 c8 -77 1 -233 -17 -374 -5 -43 -4 -47 13 -40 11 3 54 33 97 65 42 33 77
57 77 55 0 -5 42 34 157 146 l73 70 27 -18 c46 -30 196 -185 253 -263 29 -40
54 -71 56 -69 2 1 6 25 9 52 3 28 9 64 12 80 11 54 13 78 19 255 4 96 8 177
10 179 2 2 52 4 111 5 106 1 158 -4 277 -25 32 -6 61 -8 64 -5 8 8 -55 94
-191 261 -17 21 -31 43 -29 48 1 5 -1 6 -6 3 -5 -3 -17 5 -26 17 -10 12 -34
39 -54 59 -35 37 -35 37 -17 64 30 46 146 155 157 148 6 -4 8 -2 5 3 -4 7 27
33 73 62 44 29 80 55 80 59 0 18 -158 35 -350 39 l-205 4 -2 142 c-1 78 2 162
7 187 26 148 22 161 -34 115z m-171 -410 c181 -47 305 -170 362 -360 10 -30 9
-152 -1 -190 -21 -88 -65 -166 -127 -227 -46 -45 -143 -108 -167 -108 -10 0
-22 -4 -28 -9 -30 -28 -194 -38 -279 -16 -33 8 -68 17 -78 20 -39 9 -126 67
-176 117 -54 54 -116 165 -127 228 -12 69 -5 164 17 232 12 40 26 65 32 61 6
-3 7 -1 3 6 -12 18 57 104 132 163 38 31 120 70 175 83 73 18 192 18 262 0z"/>
</g>
</svg>
